<svg width="256" height="256" viewBox="0 0 256 256" fill="none" xmlns="http://www.w3.org/2000/svg">
<path fill-rule="evenodd" clip-rule="evenodd" d="M124.408 20.7981V34.6442L124.47 200.676L131.586 200.656L131.607 34.6239V20.8387L131.586 6.97221H124.47L124.408 20.7981Z" fill="white"/>
<path fill-rule="evenodd" clip-rule="evenodd" d="M110.175 20.7981V34.6442L110.238 199.154L117.354 200.189L117.417 34.6442V20.7981L117.354 7.05342L110.238 6.97221L110.175 20.7981Z" fill="white"/>
<path fill-rule="evenodd" clip-rule="evenodd" d="M138.661 20.8387V34.6239L138.682 200.189L145.798 199.194L145.839 34.6442V20.7981L145.798 6.97221H138.682L138.661 20.8387Z" fill="white"/>
<path fill-rule="evenodd" clip-rule="evenodd" d="M152.851 20.7981V34.6442L152.893 197.692L160.114 195.54L160.072 34.6442V20.7981L160.009 7.05342L152.893 6.97221L152.851 20.7981Z" fill="white"/>
<path fill-rule="evenodd" clip-rule="evenodd" d="M95.9848 20.8387V34.563C96.2978 41.0394 95.9848 48.2873 95.9848 54.8653V185.876C95.9848 186.769 96.2561 195.398 95.7135 195.479C98.1384 196.345 100.612 197.077 103.122 197.671V34.6442V20.8184V6.97221H95.9848V20.8387Z" fill="white"/>
<path fill-rule="evenodd" clip-rule="evenodd" d="M74.678 256H181.337C181.343 252.37 179.879 248.884 177.262 246.296C174.645 243.708 171.086 242.228 167.355 242.174C159.78 241.991 148.761 242.174 140.664 242.174C140.049 242.25 139.425 242.173 138.849 241.951C131.619 242.519 124.354 242.519 117.124 241.951L88.8269 242.174C86.9653 242.174 85.122 242.531 83.4027 243.226C81.6833 243.92 80.1217 244.938 78.8073 246.22C77.493 247.503 76.4516 249.025 75.743 250.7C75.0345 252.374 74.6725 254.169 74.678 255.98" fill="#ECECEC"/>
<path fill-rule="evenodd" clip-rule="evenodd" d="M81.8358 34.563H95.9846V20.8387H79.9159C80.5346 22.9224 81.0018 25.0458 81.3141 27.1933C81.6688 29.792 81.6688 31.8628 81.8358 34.6848" fill="#ECECEC"/>
<path fill-rule="evenodd" clip-rule="evenodd" d="M160.072 34.5631H174.137C174.262 32.1877 174.367 29.589 174.68 27.3152C174.868 26.0158 175.034 25.1631 175.285 23.9653C175.535 22.7674 175.932 21.6305 176.057 20.7372H160.072V34.5631Z" fill="#ECECEC"/>
<path d="M138.661 20.8387H131.607V34.6239H138.661V20.8387Z" fill="#ECECEC"/>
<path d="M110.175 20.8184H103.184V34.6442H110.175V20.8184Z" fill="#ECECEC"/>
<path d="M124.408 20.8184H117.417V34.6442H124.408V20.8184Z" fill="#ECECEC"/>
<path d="M152.831 20.8184H145.84V34.6442H152.831V20.8184Z" fill="#ECECEC"/>
<path fill-rule="evenodd" clip-rule="evenodd" d="M117.124 241.971C124.354 242.54 131.619 242.54 138.848 241.971C152.246 240.712 160.301 239.352 172.468 234.216C200.494 222.379 219.526 195.154 223.387 162.975C226.329 138.612 217.836 115.102 210.97 95.4699C207.527 85.6233 203.457 76.1015 199.471 66.397C197.718 62.1335 188.307 39.8619 188.766 36.5324C190.449 37.975 192.367 39.1346 194.442 39.9634C198.358 41.5396 202.663 41.9605 206.823 41.1735C210.983 40.3865 214.812 38.4265 217.836 35.5375L220.882 31.6801C223.235 27.9143 224.301 23.5202 223.927 19.1284C223.553 14.7367 221.758 10.5731 218.8 7.23552C215.842 3.89791 211.874 1.55784 207.464 0.551238C203.054 -0.455367 198.429 -0.0767439 194.254 1.63276C190.443 2.91279 186.96 4.97732 184.043 7.68558C181.126 10.3939 178.843 13.6822 177.351 17.3264C176.892 18.4633 176.474 19.783 176.057 20.8184C175.64 21.8538 175.493 23.072 175.285 24.0465C175.076 25.021 174.867 26.0767 174.68 27.3963C174.367 29.6702 174.262 32.2689 174.137 34.6443C174.471 36.2481 174.387 39.4559 174.596 41.4252C177.455 68.3663 197.551 89.2574 201.725 123C204.042 141.759 202.685 157.29 194.046 170.913C190.284 176.722 185.418 181.779 179.709 185.815C173.751 190.015 167.163 193.295 160.176 195.54L152.956 197.692L145.86 199.194L138.744 200.169L131.649 200.656H124.47L117.354 200.169L110.238 199.133C107.754 198.869 105.459 198.057 103.142 197.651C100.632 197.057 98.1591 196.325 95.7342 195.459C92.1014 194.286 88.5762 192.819 85.1956 191.073C82.0046 189.507 78.9602 187.673 76.097 185.592C73.2764 183.605 70.6686 181.347 68.313 178.851C65.9267 176.346 63.7886 173.627 61.9273 170.73C53.7051 157.432 51.7226 141.069 54.4146 122.675C56.1095 111.093 59.3943 99.7857 64.1811 89.0543C65.6419 85.7045 67.2279 82.3749 68.6469 79.0656C73.3841 67.8994 77.8291 60.3875 80.4585 47.5971C81.2616 43.2934 81.7221 38.9357 81.8358 34.563C81.6689 31.741 81.6689 29.6702 81.3141 27.0715C81.0254 24.9533 80.5861 22.8572 79.9994 20.7981C75.1788 1.59215 47.4028 -8.7214 35.2365 9.81457C32.8405 13.5504 31.727 17.9303 32.0567 22.322C32.3865 26.7137 34.1424 30.8897 37.0709 34.2472C39.9994 37.6046 43.949 39.9697 48.3493 41.0008C52.7497 42.0319 57.373 41.6758 61.5517 39.9837C63.6734 39.1151 65.6666 37.9749 67.4783 36.5933C67.1027 37.6896 66.9149 39.192 66.5392 40.5116C64.4524 47.8204 59.5692 59.2709 56.7102 66.194C45.3995 93.4396 28.7464 132.603 32.6071 162.731C34.4984 180.974 41.9057 198.262 53.8929 212.411C54.6313 213.336 55.4257 214.217 56.2719 215.05L58.8596 217.73C60.6543 219.253 62.2195 220.918 64.202 222.481C68.5044 225.971 73.1613 229.025 78.1003 231.597C84.6304 235.005 91.5798 237.59 98.781 239.291C104.813 240.655 110.947 241.552 117.124 241.971V241.971ZM188.515 23.7825C188.7 21.3505 189.731 19.0521 191.437 17.2655C192.484 16.0777 193.817 15.1611 195.318 14.5977C196.818 14.0344 198.439 13.8418 200.035 14.0374C202.714 14.2335 205.215 15.4157 207.03 17.3431C208.844 19.2706 209.835 21.7984 209.801 24.4119C209.745 26.4556 209.073 28.4383 207.869 30.1137C206.665 31.7892 204.981 33.0835 203.027 33.8361C201.073 34.5887 198.935 34.7663 196.878 34.3469C194.822 33.9275 192.937 32.9296 191.458 31.4771C190.651 30.6201 189.995 29.6391 189.517 28.5739C188.776 27.0835 188.432 25.436 188.515 23.7825V23.7825ZM46.3803 23.7825C46.4761 21.2862 47.5147 18.9118 49.2974 17.1139C51.08 15.3159 53.4815 14.2206 56.0424 14.0374H57.9623C65.5167 14.0374 71.5268 24.7367 64.3689 31.6801C63.308 32.7175 62.0245 33.5139 60.6103 34.0123C59.1961 34.5107 57.6861 34.6987 56.1885 34.563C54.8101 34.4932 53.4597 34.1581 52.2154 33.5769C50.9711 32.9958 49.8577 32.1803 48.9396 31.1777C48.0215 30.175 47.3171 29.0051 46.867 27.7357C46.417 26.4663 46.2302 25.1226 46.3177 23.7825H46.3803Z" fill="white"/>
</svg>
